<svg xmlns="http://www.w3.org/2000/svg" width="1600" height="1522" viewBox="0 0 1600 1522" version="1.1">
	<path d="M 780.346 42.765 C 779.712 43.169, 775.774 43.447, 771.596 43.383 C 767.418 43.318, 764 43.642, 764 44.101 C 764 44.561, 763.438 44.729, 762.750 44.473 C 762.063 44.218, 760.289 44.345, 758.809 44.755 C 756.413 45.418, 756.991 45.787, 764.059 48.105 C 768.426 49.538, 772 50.536, 772 50.323 C 772 50.110, 771.023 49.574, 769.829 49.132 C 768.556 48.661, 768.100 48.056, 768.726 47.669 C 770.116 46.810, 779.236 55.027, 782.182 59.794 C 783.905 62.581, 784.556 63.066, 784.810 61.750 C 784.995 60.788, 785.509 60, 785.952 60 C 786.395 60, 787.299 58.693, 787.961 57.095 C 788.622 55.498, 790.025 53.965, 791.077 53.690 C 793.444 53.071, 794.644 50.244, 793.166 48.766 C 792.561 48.161, 790.702 47.667, 789.033 47.667 C 787.365 47.667, 786 47.292, 786 46.833 C 786 46.375, 786.900 46, 788 46 C 791.202 46, 790.306 43.311, 786.875 42.625 C 782.905 41.831, 781.775 41.855, 780.346 42.765 M 797 44.019 C 794.578 44.626, 794.598 44.661, 797.622 45.131 C 799.339 45.398, 801.576 45.324, 802.594 44.967 C 804.192 44.407, 804.107 44.255, 801.972 43.855 C 800.612 43.600, 798.375 43.673, 797 44.019 M 761.500 46 C 764.249 47.181, 765.828 47.181, 764 46 C 763.175 45.467, 761.825 45.055, 761 45.086 C 760.011 45.122, 760.181 45.433, 761.500 46 M 807.813 45.683 C 808.534 45.972, 809.397 45.936, 809.729 45.604 C 810.061 45.272, 809.471 45.036, 808.417 45.079 C 807.252 45.127, 807.015 45.364, 807.813 45.683 M 685 88.090 C 685 88.689, 684.080 89.927, 682.955 90.840 C 681.830 91.753, 680.836 93.481, 680.747 94.681 C 680.658 95.880, 680.116 96.780, 679.542 96.681 C 678.969 96.581, 678.567 97.318, 678.650 98.317 C 678.732 99.316, 678.547 99.880, 678.237 99.570 C 677.310 98.644, 673.835 105.127, 674.429 106.675 C 674.730 107.461, 674.584 107.861, 674.105 107.565 C 673.404 107.132, 670.690 111.936, 670.470 114 C 670.440 114.275, 669.628 115.977, 668.665 117.783 C 667.083 120.749, 663.028 132.692, 662.574 135.721 C 662.474 136.393, 662.078 137.255, 661.696 137.638 C 660.405 138.928, 660.988 141.715, 663.114 144.418 C 664.277 145.896, 664.927 147.406, 664.560 147.774 C 663.937 148.396, 662.530 146.812, 661.653 144.500 C 660.803 142.260, 659.885 145.307, 657.558 158.082 C 654.556 174.568, 652.683 196.282, 653.512 204.992 C 655.423 225.089, 666.159 257.973, 670.823 258.015 C 672.271 258.029, 672.295 258.163, 671 259 C 669.718 259.828, 669.754 259.972, 671.250 259.985 C 672.387 259.995, 673.008 260.788, 673.022 262.250 C 673.034 263.488, 673.924 265.625, 675 267 C 676.076 268.375, 676.966 270.040, 676.978 270.700 C 676.990 271.360, 677.564 272.260, 678.253 272.700 C 678.942 273.140, 680.855 275.521, 682.503 277.992 C 687.084 284.858, 701.221 299.172, 713.990 309.871 C 720.310 315.167, 726.272 320.288, 727.240 321.250 C 729.403 323.401, 732.295 323.432, 754.500 321.542 C 763.850 320.746, 789.478 318.671, 811.452 316.929 L 851.403 313.763 857.395 308.631 C 865.162 301.980, 881.946 285.353, 884.784 281.500 C 885.999 279.850, 888.481 276.475, 890.299 274 C 898.009 263.506, 904.445 250.537, 908.412 237.500 C 909.919 232.550, 911.612 226.994, 912.175 225.153 C 912.739 223.312, 913.315 220.162, 913.456 218.153 C 913.598 216.144, 914.023 213.785, 914.402 212.912 C 915.629 210.081, 914.648 195.470, 913.250 195.750 C 912.479 195.904, 912 194.883, 912 193.083 C 912 191.479, 911.442 189.981, 910.759 189.753 C 909.867 189.456, 910.007 188.850, 911.259 187.598 C 913.570 185.287, 913.470 183.644, 911.055 184.275 C 909.650 184.643, 909.026 184.216, 908.805 182.738 C 908.514 180.785, 908.353 180.816, 905.250 183.435 C 902.115 186.081, 900.935 189, 903 189 C 904.857 189, 904.017 191.762, 901.999 192.290 C 900.898 192.578, 900.249 192.405, 900.558 191.907 C 900.866 191.408, 900.292 191, 899.282 191 C 898.272 191, 894.308 194.173, 890.473 198.052 C 882.897 205.713, 873.253 213.587, 872.441 212.774 C 872.161 212.495, 873.410 210.962, 875.216 209.368 C 877.022 207.774, 879.288 205.255, 880.250 203.770 C 882.126 200.876, 882.654 194, 881 194 C 880.450 194, 880 193.100, 880 192 C 880 190.444, 879.333 190, 877 190 C 874.167 190, 874 189.778, 874 186 C 874 182.667, 873.667 182, 872 182 C 870.667 182, 870 181.333, 870 180 C 870 178.667, 870.667 178, 872 178 C 873.100 178, 874 177.550, 874 177 C 874 176.450, 874.900 176, 876 176 C 877.333 176, 878 175.333, 878 174 C 878 172.667, 877.333 172, 876 172 C 874.533 172, 874 171.333, 874 169.500 C 874 168.125, 873.523 167, 872.941 167 C 872.359 167, 872.128 167.399, 872.430 167.886 C 872.731 168.374, 872.083 169.007, 870.989 169.293 C 869.895 169.579, 869 169.335, 869 168.751 C 869 168.168, 868.177 168.435, 867.171 169.345 C 866.165 170.255, 864.680 171, 863.871 171 C 863.062 171, 861.920 171.480, 861.333 172.067 C 859.618 173.782, 845.493 174.462, 840.711 173.060 C 829.578 169.795, 827.892 167.757, 824.533 153.500 C 824.403 152.950, 823.809 151.375, 823.212 150 C 822.154 147.563, 822.125 147.557, 822.063 149.750 C 822.019 151.312, 821.389 152, 820 152 C 818.900 152, 818 151.346, 818 150.547 C 818 147.699, 815.649 144, 813.839 144 C 812.828 144, 812 143.550, 812 143 C 812 142.450, 811.330 142, 810.511 142 C 808.699 142, 804.932 138.920, 805.540 137.935 C 805.781 137.545, 805.324 136.684, 804.524 136.020 C 803.016 134.768, 799.656 136.507, 794.254 141.334 C 793.019 142.438, 791.709 143.042, 791.344 142.677 C 790.978 142.312, 791.720 141.110, 792.993 140.006 C 794.265 138.903, 794.900 137.993, 794.403 137.985 C 793.906 137.976, 794.109 137.583, 794.853 137.112 C 795.909 136.443, 795.956 135.786, 795.068 134.127 C 794.442 132.957, 793.495 132, 792.965 132 C 792.434 132, 792 131.100, 792 130 C 792 128.667, 791.333 128, 790 128 C 788.900 128, 788 127.550, 788 127 C 788 126.450, 787.100 126, 786 126 C 784.900 126, 784 125.550, 784 125 C 784 124.450, 783.100 124, 782 124 C 780.900 124, 780 123.564, 780 123.031 C 780 122.499, 779.438 122.200, 778.750 122.367 C 778.063 122.535, 777.837 122.483, 778.250 122.253 C 779.752 121.413, 778.941 120.202, 776.459 119.579 C 775.062 119.228, 774.188 118.505, 774.518 117.971 C 774.848 117.437, 774.164 117, 772.997 117 C 770.657 117, 760.793 119.995, 760 120.946 C 759.725 121.276, 758.248 122.343, 756.718 123.317 C 755.188 124.291, 754.238 125.576, 754.607 126.174 C 754.997 126.804, 754.711 127.070, 753.924 126.808 C 750.491 125.664, 742.775 140.033, 742.813 147.500 C 742.819 148.600, 742.607 150.602, 742.343 151.948 C 741.964 153.880, 741.670 154.091, 740.947 152.948 C 740.334 151.980, 740.026 153.560, 740.015 157.717 C 740.001 163.407, 739.721 164.211, 736.706 167.217 C 731.585 172.320, 717.429 174.635, 707.762 171.951 C 701.653 170.254, 690.265 163.138, 684.855 157.637 C 676.969 149.617, 675.596 145.763, 675.544 131.500 C 675.520 124.900, 675.836 117.308, 676.247 114.630 C 676.906 110.336, 676.815 109.909, 675.473 111.022 C 673.345 112.788, 672.550 111.593, 674.533 109.610 C 675.429 108.714, 676.644 108.280, 677.235 108.645 C 677.826 109.010, 678.024 108.849, 677.677 108.286 C 677.329 107.723, 678.384 104.497, 680.022 101.115 C 681.660 97.734, 683.010 94.638, 683.022 94.234 C 683.034 93.830, 683.924 92.375, 685 91 C 687.186 88.206, 687.487 87, 686 87 C 685.450 87, 685 87.490, 685 88.090 M 676.500 103 C 676.160 103.550, 676.359 104, 676.941 104 C 677.523 104, 678 103.550, 678 103 C 678 102.450, 677.802 102, 677.559 102 C 677.316 102, 676.840 102.450, 676.500 103 M 890.710 105 C 890.423 106.100, 890.595 107, 891.094 107 C 891.592 107, 892 106.100, 892 105 C 892 103.900, 891.827 103, 891.617 103 C 891.406 103, 890.998 103.900, 890.710 105 M 896.624 113.539 C 895.659 116.053, 895.943 116.702, 897.122 114.675 C 897.706 113.671, 897.973 112.639, 897.715 112.382 C 897.458 112.124, 896.966 112.645, 896.624 113.539 M 782.500 116 C 782.160 116.550, 782.584 117, 783.441 117 C 784.298 117, 785 116.550, 785 116 C 785 115.450, 784.577 115, 784.059 115 C 783.541 115, 782.840 115.450, 782.500 116 M 777.269 116.693 C 778.242 116.947, 779.592 116.930, 780.269 116.656 C 780.946 116.382, 780.150 116.175, 778.500 116.195 C 776.850 116.215, 776.296 116.439, 777.269 116.693 M 894.079 119.583 C 894.127 120.748, 894.364 120.985, 894.683 120.188 C 894.972 119.466, 894.936 118.603, 894.604 118.271 C 894.272 117.939, 894.036 118.529, 894.079 119.583 M 723.637 121.453 C 712.991 125.281, 707.662 138.013, 713.026 146.810 C 718.587 155.932, 734.733 154.394, 739.538 144.284 C 746.150 130.373, 736.674 116.767, 723.637 121.453 M 830.420 122.826 C 820.518 129.056, 822.750 146.638, 834.200 152.595 C 838.677 154.924, 845.791 154.396, 849.657 151.448 C 854.491 147.761, 856.318 143.658, 855.751 137.760 C 855.232 132.359, 853.257 129.143, 847.695 124.641 C 842.878 120.742, 835.041 119.919, 830.420 122.826 M 798 123.383 C 798 124.144, 799.237 125.005, 800.750 125.295 C 804.116 125.942, 804.669 125.511, 803.020 123.524 C 801.441 121.621, 798 121.525, 798 123.383 M 734.739 135.889 C 734.467 136.928, 734.621 138.387, 735.081 139.131 C 736.344 141.175, 738.354 138.691, 737.532 136.101 C 736.703 133.490, 735.393 133.391, 734.739 135.889 M 792.500 135 C 792.160 135.550, 792.359 136, 792.941 136 C 793.523 136, 794 135.550, 794 135 C 794 134.450, 793.802 134, 793.559 134 C 793.316 134, 792.840 134.450, 792.500 135 M 829.588 136.857 C 828.719 138.263, 830.056 141.148, 831.373 140.709 C 832.853 140.216, 832.829 136.776, 831.342 136.281 C 830.705 136.068, 829.916 136.328, 829.588 136.857 M 820 139.618 C 820 140.168, 820.661 141.491, 821.468 142.559 C 822.276 143.626, 822.936 144.050, 822.936 143.500 C 822.936 142.950, 822.276 141.626, 821.468 140.559 C 820.661 139.491, 820 139.068, 820 139.618 M 785 149.059 C 785 149.641, 785.450 149.840, 786 149.500 C 786.550 149.160, 787 148.684, 787 148.441 C 787 148.198, 786.550 148, 786 148 C 785.450 148, 785 148.477, 785 149.059 M 884.655 156.829 C 882.832 158.843, 882.430 160.470, 883.995 159.503 C 885.038 158.859, 887.347 155, 886.690 155 C 886.481 155, 885.565 155.823, 884.655 156.829 M 659.079 160.583 C 659.127 161.748, 659.364 161.985, 659.683 161.188 C 659.972 160.466, 659.936 159.603, 659.604 159.271 C 659.272 158.939, 659.036 159.529, 659.079 160.583 M 912.079 170.583 C 912.127 171.748, 912.364 171.985, 912.683 171.188 C 912.972 170.466, 912.936 169.603, 912.604 169.271 C 912.272 168.939, 912.036 169.529, 912.079 170.583 M 892 189 C 892 189.550, 892.450 190, 893 190 C 893.550 190, 894 189.550, 894 189 C 894 188.450, 893.550 188, 893 188 C 892.450 188, 892 188.450, 892 189 M 726 208 C 726 208.550, 726.477 209, 727.059 209 C 727.641 209, 727.840 208.550, 727.500 208 C 727.160 207.450, 726.684 207, 726.441 207 C 726.198 207, 726 207.450, 726 208 M 893.500 226 C 894.495 227.100, 895.535 228, 895.810 228 C 896.085 228, 895.495 227.100, 894.500 226 C 893.505 224.900, 892.465 224, 892.190 224 C 891.915 224, 892.505 224.900, 893.500 226 M 854.500 231 C 854.160 231.550, 854.359 232, 854.941 232 C 855.523 232, 856 231.550, 856 231 C 856 230.450, 855.802 230, 855.559 230 C 855.316 230, 854.840 230.450, 854.500 231 M 674 263.461 C 674 264.307, 678.363 268, 679.363 268 C 679.905 268, 679.292 266.875, 678 265.500 C 675.868 263.231, 674 262.279, 674 263.461 M 1190.500 380.673 C 1181.925 382.566, 1172 389.383, 1172 393.381 C 1172 394.103, 1171.278 396.140, 1170.395 397.909 C 1167.927 402.857, 1166.727 414.707, 1166.640 435 C 1166.543 457.443, 1167.396 465.326, 1169.837 464.552 C 1171.108 464.148, 1171.821 464.988, 1172.759 467.993 C 1173.442 470.180, 1174 472.850, 1174 473.928 C 1174 475.005, 1174.897 476.515, 1175.993 477.282 C 1177.089 478.050, 1178.268 480.091, 1178.613 481.817 C 1178.959 483.543, 1179.862 485.470, 1180.621 486.100 C 1181.379 486.730, 1182 487.865, 1182 488.622 C 1182 489.380, 1182.450 490, 1183 490 C 1183.550 490, 1184 490.597, 1184 491.326 C 1184 493.042, 1188.440 497.226, 1189.324 496.342 C 1189.696 495.971, 1190 496.204, 1190 496.860 C 1190 498.231, 1194.691 503.760, 1200.483 509.217 C 1205.507 513.950, 1215.004 519.056, 1221.500 520.516 C 1226.339 521.604, 1226.510 521.762, 1226.818 525.453 L 1227.137 529.266 1232.441 528.718 C 1246.438 527.274, 1255.534 516.449, 1260.887 494.866 C 1263.711 483.480, 1265.276 468.978, 1264.852 458.116 L 1264.500 449.084 1258.591 443.542 C 1252.275 437.618, 1251.905 437.445, 1248.934 439.035 C 1247.870 439.605, 1247.015 439.717, 1247.033 439.285 C 1247.073 438.346, 1250.604 434, 1251.327 434 C 1251.606 434, 1254.673 436.957, 1258.143 440.571 C 1261.614 444.185, 1264.631 446.608, 1264.848 445.955 C 1265.066 445.303, 1264.816 444.483, 1264.292 444.134 C 1263.769 443.785, 1263.350 442.375, 1263.362 441 C 1263.374 439.625, 1263.298 436.712, 1263.192 434.527 C 1263.004 430.632, 1262.970 430.598, 1261.443 432.777 C 1260.587 434, 1259.237 435, 1258.443 435 C 1257.649 435, 1257 435.450, 1257 436 C 1257 436.550, 1256.550 437, 1256 437 C 1255.450 437, 1255 436.325, 1255 435.500 C 1255 434.675, 1254.550 434, 1254 434 C 1253.450 434, 1253 433.325, 1253 432.500 C 1253 430.684, 1254.635 430.509, 1255.338 432.250 C 1255.615 432.938, 1255.878 431.786, 1255.921 429.691 C 1255.964 427.596, 1256.359 426.104, 1256.798 426.375 C 1257.237 426.646, 1258.151 426.525, 1258.829 426.106 C 1260.216 425.248, 1259.142 421.512, 1257.500 421.482 C 1253.556 421.409, 1246 419.756, 1246 418.966 C 1246 418.435, 1243.750 418, 1241 418 C 1238.250 418, 1236 418.450, 1236 419 C 1236 419.550, 1236.900 420, 1238 420 C 1239.333 420, 1240 420.667, 1240 422 C 1240 423.711, 1239.333 424, 1235.385 424 C 1230.829 424, 1230.789 423.971, 1232.245 421.750 L 1233.720 419.500 1220.860 419.656 C 1208.824 419.802, 1208 419.689, 1208 417.906 C 1208 416.667, 1208.700 416, 1210 416 C 1211.333 416, 1212 415.333, 1212 414 C 1212 412.222, 1211.333 412, 1206 412 C 1200.667 412, 1200 411.778, 1200 410 C 1200 408.900, 1199.550 408, 1199 408 C 1198.450 408, 1198 407.100, 1198 406 C 1198 404.667, 1197.333 404, 1196 404 C 1194.506 404, 1194 403.333, 1194 401.367 C 1194 399.919, 1193.213 398.007, 1192.250 397.117 C 1189.350 394.437, 1189.418 384.992, 1192.321 387.250 C 1192.498 387.387, 1193.434 386.708, 1194.402 385.741 C 1195.370 384.773, 1196.575 384.237, 1197.081 384.550 C 1198.418 385.376, 1198.148 383.779, 1196.608 381.750 C 1195.285 380.007, 1194.303 379.834, 1190.500 380.673 M 1198.500 381 C 1198.840 381.550, 1199.568 382, 1200.118 382 C 1200.668 382, 1200.840 381.550, 1200.500 381 C 1200.160 380.450, 1199.432 380, 1198.882 380 C 1198.332 380, 1198.160 380.450, 1198.500 381 M 1208.762 380.707 C 1210.006 380.946, 1211.806 380.937, 1212.762 380.687 C 1213.718 380.437, 1212.700 380.241, 1210.500 380.252 C 1208.300 380.263, 1207.518 380.468, 1208.762 380.707 M 1217.250 380.689 C 1218.213 380.941, 1219.787 380.941, 1220.750 380.689 C 1221.713 380.438, 1220.925 380.232, 1219 380.232 C 1217.075 380.232, 1216.287 380.438, 1217.250 380.689 M 1248.667 392.667 C 1248.300 393.033, 1248 393.798, 1248 394.367 C 1248 394.993, 1248.466 394.934, 1249.183 394.217 C 1249.834 393.566, 1250.134 392.801, 1249.850 392.517 C 1249.566 392.233, 1249.033 392.300, 1248.667 392.667 M 352.216 400.049 C 349.030 401.876, 347.205 403.522, 347.620 404.194 C 348.036 404.867, 347.855 405.029, 347.166 404.603 C 345.699 403.696, 338.837 409.112, 339.441 410.699 C 339.706 411.394, 339.321 411.677, 338.526 411.372 C 337.745 411.072, 336.618 411.849, 335.913 413.172 C 335.231 414.453, 334.101 415.950, 333.402 416.500 C 331.296 418.157, 326.363 428.025, 323.655 436 C 319.842 447.227, 315.793 464.137, 316.292 466.747 C 316.534 468.012, 316.342 469.289, 315.866 469.583 C 314.278 470.564, 314.974 487.058, 317.028 497.137 C 320.257 512.980, 325.481 524.996, 334.577 537.500 C 340.447 545.570, 345.729 550.585, 352.597 554.610 C 356.608 556.960, 358.608 557.454, 364.205 557.475 C 368.668 557.491, 371.131 557.925, 371.452 558.750 C 371.719 559.438, 372.653 560, 373.528 560 C 374.402 560, 374.860 559.582, 374.544 559.072 C 373.851 557.950, 375.753 557.362, 383 556.460 C 386.384 556.038, 389.188 555.048, 390.289 553.887 C 391.273 552.849, 392.912 552, 393.932 552 C 396.103 552, 397.284 549.684, 395.846 548.246 C 395.182 547.582, 395.707 547.412, 397.412 547.738 C 399.121 548.065, 400.169 547.723, 400.557 546.712 C 400.877 545.879, 402.682 544.907, 404.569 544.553 C 406.762 544.142, 408 543.338, 408 542.326 C 408 540.404, 414.454 532.994, 417.675 531.218 C 418.954 530.513, 420 529.350, 420 528.634 C 420 527.919, 421.747 525.440, 423.883 523.127 C 428.026 518.639, 429.739 513.596, 427.881 511.357 C 427.022 510.321, 427.096 510, 428.197 510 C 428.990 510, 430.587 508.910, 431.745 507.578 C 433.403 505.671, 433.556 505.043, 432.462 504.624 C 431.694 504.329, 430.158 505.255, 429.023 506.698 C 427.895 508.132, 426.642 508.976, 426.239 508.573 C 425.836 508.170, 427.080 506.375, 429.003 504.585 C 430.927 502.795, 433.370 499.793, 434.433 497.915 C 435.496 496.037, 437.183 493.912, 438.183 493.193 C 440.200 491.743, 440.564 488.964, 438.948 487.348 C 438.218 486.618, 438.202 483.265, 438.897 476.398 C 439.526 470.172, 439.558 463.903, 438.982 459.500 C 438.478 455.650, 438.051 450.425, 438.033 447.890 C 438.010 444.660, 437.251 442.176, 435.500 439.595 C 434.125 437.569, 433 435.428, 433 434.836 C 433 432.163, 425.478 421.737, 421.648 419.102 C 414.059 413.881, 405.968 412.521, 369.858 410.397 L 360.216 409.830 359.608 406.790 C 359.274 405.118, 359 402.231, 359 400.375 C 359 398.519, 358.663 397.004, 358.250 397.009 C 357.837 397.015, 355.122 398.382, 352.216 400.049 M 1256.611 412.652 C 1255.907 414.870, 1257.700 420, 1259.180 420 C 1260.006 420, 1259.477 416.664, 1257.993 412.516 C 1257.299 410.579, 1257.267 410.582, 1256.611 412.652 M 370 414 C 370 414.550, 370.477 415, 371.059 415 C 371.641 415, 371.840 414.550, 371.500 414 C 371.160 413.450, 370.684 413, 370.441 413 C 370.198 413, 370 413.450, 370 414 M 365.872 418.750 C 364.629 420.336, 364.664 420.371, 366.250 419.128 C 367.212 418.373, 368 417.585, 368 417.378 C 368 416.555, 367.179 417.084, 365.872 418.750 M 357.150 427.212 L 350.800 433.386 348.922 430.943 C 347.806 429.491, 347.035 429.064, 347.022 429.890 C 347.010 430.654, 347.788 431.860, 348.750 432.570 C 350.368 433.763, 350.240 434.129, 347.054 437.430 C 342.861 441.773, 343.913 442.241, 348.210 437.944 C 349.996 436.158, 351.880 435.124, 352.744 435.455 C 353.742 435.838, 354.042 435.552, 353.666 434.573 C 353.319 433.668, 355.439 430.849, 359.305 427.074 C 362.712 423.747, 365.050 421.028, 364.500 421.031 C 363.950 421.035, 360.642 423.816, 357.150 427.212 M 1260.583 427.866 C 1260.152 428.563, 1260.070 429.403, 1260.400 429.733 C 1261.295 430.628, 1262.271 429.312, 1261.787 427.862 C 1261.449 426.846, 1261.213 426.846, 1260.583 427.866 M 1247.510 433.016 C 1247.856 433.575, 1248.557 433.774, 1249.069 433.457 C 1250.456 432.600, 1250.198 432, 1248.441 432 C 1247.584 432, 1247.165 432.457, 1247.510 433.016 M 1237.637 447.957 C 1231.193 454.846, 1231.817 455.600, 1238.500 449 C 1241.525 446.013, 1244 443.440, 1244 443.284 C 1244 441.983, 1241.524 443.802, 1237.637 447.957 M 365 448.378 C 365 448.585, 365.788 449.373, 366.750 450.128 C 368.336 451.371, 368.371 451.336, 367.128 449.750 C 365.821 448.084, 365 447.555, 365 448.378 M 374.500 458 C 375.495 459.100, 376.535 460, 376.810 460 C 377.085 460, 376.495 459.100, 375.500 458 C 374.505 456.900, 373.465 456, 373.190 456 C 372.915 456, 373.505 456.900, 374.500 458 M 1229 457 C 1229 457.550, 1229.450 458, 1230 458 C 1230.550 458, 1231 457.550, 1231 457 C 1231 456.450, 1230.550 456, 1230 456 C 1229.450 456, 1229 456.450, 1229 457 M 1224.872 461.750 C 1223.629 463.336, 1223.664 463.371, 1225.250 462.128 C 1226.916 460.821, 1227.445 460, 1226.622 460 C 1226.415 460, 1225.627 460.788, 1224.872 461.750 M 381 464.378 C 381 464.585, 381.788 465.373, 382.750 466.128 C 384.336 467.371, 384.371 467.336, 383.128 465.750 C 381.821 464.084, 381 463.555, 381 464.378 M 389 472.378 C 389 472.585, 389.788 473.373, 390.750 474.128 C 392.336 475.371, 392.371 475.336, 391.128 473.750 C 389.821 472.084, 389 471.555, 389 472.378 M 904.500 869.513 C 895.700 870.208, 875.675 871.745, 860 872.928 C 822.564 875.754, 824.679 875.365, 825.283 879.314 C 825.550 881.066, 826.966 890.150, 828.429 899.500 C 831.899 921.674, 834.044 941.585, 838.988 997.500 C 841.225 1022.800, 843.740 1050.250, 844.578 1058.500 C 845.415 1066.750, 846.736 1087.450, 847.513 1104.500 C 848.920 1135.370, 849.984 1147.104, 852.027 1154.263 C 853.378 1158.994, 852.749 1160, 848.441 1160 C 846.548 1160, 845 1160.450, 845 1161 C 845 1161.550, 844.348 1162, 843.550 1162 C 842.753 1162, 839.946 1163.454, 837.312 1165.231 C 834.679 1167.008, 831.844 1168.471, 831.012 1168.481 C 830.181 1168.492, 829.591 1168.998, 829.702 1169.606 C 829.813 1170.214, 828.053 1171.267, 825.791 1171.945 C 822.033 1173.070, 818.116 1176.291, 818.033 1178.321 C 817.990 1179.384, 820.604 1182, 821.708 1182 C 822.176 1182, 823.207 1182.900, 824 1184 C 824.793 1185.100, 826.368 1186, 827.500 1186 C 828.632 1186, 830.207 1186.900, 831 1188 C 831.793 1189.100, 833.017 1190, 833.721 1190 C 834.424 1190, 835 1190.627, 835 1191.393 C 835 1193.076, 837.155 1194, 841.082 1194 C 842.687 1194, 844.787 1194.708, 845.750 1195.573 C 850.857 1200.163, 853.731 1201.998, 855.815 1201.999 C 857.158 1201.999, 859.189 1203.259, 860.653 1205 C 862.042 1206.650, 864.079 1208, 865.181 1208 C 866.283 1208, 868.329 1208.900, 869.727 1210 C 871.126 1211.100, 872.905 1212, 873.681 1212 C 874.457 1212, 878.558 1213.072, 882.796 1214.383 C 892.814 1217.482, 902.291 1218.914, 919.482 1219.925 C 930.554 1220.577, 933.676 1220.477, 934.482 1219.444 C 935.168 1218.566, 938.848 1218.037, 945.779 1217.821 C 952.471 1217.612, 955.350 1217.815, 954.029 1218.403 C 951.151 1219.683, 951.516 1221, 954.750 1221.002 C 960.880 1221.007, 985.231 1216.293, 989.200 1214.333 C 990.686 1213.600, 992.823 1213, 993.950 1213 C 995.078 1213, 996 1212.539, 996 1211.975 C 996 1211.412, 997.125 1210.523, 998.500 1210 C 1001.181 1208.981, 1001.750 1206.269, 999.977 1202.957 C 999.135 1201.384, 999.242 1201.155, 1000.578 1201.668 C 1001.791 1202.134, 1002.099 1201.811, 1001.792 1200.396 C 1001.566 1199.353, 1000.840 1198.614, 1000.179 1198.754 C 999.511 1198.895, 1000.201 1196.673, 1001.731 1193.754 C 1004.233 1188.984, 1004.485 1187.534, 1004.474 1178 C 1004.459 1165.673, 1003.004 1160.074, 996.806 1148.498 C 988.758 1133.468, 973.799 1120.775, 956.689 1114.458 C 950.717 1112.253, 948.907 1109.036, 946.583 1096.500 C 945.665 1091.550, 943.327 1078.950, 941.386 1068.500 C 935.514 1036.870, 934.415 1027.265, 928 951.500 C 925.534 922.377, 925.198 919.760, 924.019 920.489 C 923.534 920.788, 922.849 920.564, 922.495 919.992 C 922.141 919.419, 922.447 919.074, 923.176 919.225 C 924.203 919.438, 924.430 917.817, 924.190 912 C 924.019 907.875, 923.479 904.358, 922.990 904.183 C 922.498 904.009, 922.464 902.889, 922.913 901.683 C 923.360 900.483, 923.364 893.200, 922.921 885.500 C 922.479 877.800, 922.091 870.712, 922.059 869.750 C 922.026 868.788, 921.663 868.056, 921.250 868.124 C 920.837 868.193, 913.300 868.817, 904.500 869.513 M 718 884.043 C 688.989 886.367, 669.404 888.058, 665 888.618 C 661.963 889.005, 649.598 889.907, 646.392 889.976 C 645.679 889.991, 645.046 894.375, 644.619 902.250 C 644.254 908.987, 643.292 921.475, 642.481 930 C 641.671 938.525, 639.865 959, 638.469 975.500 C 633.633 1032.674, 633.005 1037.555, 624.847 1081.500 C 620.287 1106.064, 618.177 1111.995, 613.500 1113.399 C 611.850 1113.894, 606.357 1116.290, 601.292 1118.723 C 572.971 1132.330, 555.637 1166.139, 564.091 1191.282 C 565.241 1194.702, 566.655 1198.073, 567.232 1198.773 C 568.028 1199.737, 567.884 1199.893, 566.641 1199.416 C 565.325 1198.911, 565 1199.436, 565 1202.072 C 565 1203.879, 565.524 1206.807, 566.164 1208.577 C 567.135 1211.262, 567.983 1211.902, 571.269 1212.427 C 573.437 1212.774, 576.519 1213.734, 578.119 1214.561 C 581.685 1216.406, 588.204 1217.880, 597.689 1218.987 C 601.643 1219.449, 605.702 1220.088, 606.710 1220.408 C 607.998 1220.817, 609.050 1220.173, 610.245 1218.245 C 611.794 1215.747, 611.949 1215.692, 611.973 1217.628 C 611.988 1218.798, 612.675 1220.315, 613.500 1221 C 614.753 1222.040, 615 1221.896, 615 1220.122 C 615 1218.902, 615.638 1218, 616.500 1218 C 617.325 1218, 618 1218.675, 618 1219.500 C 618 1221.255, 620.295 1221.448, 623.130 1219.931 C 624.592 1219.148, 625.522 1219.189, 626.599 1220.082 C 629.400 1222.407, 676.450 1217.950, 679.310 1215.090 C 679.909 1214.491, 682.249 1214, 684.509 1214 C 686.769 1214, 689.456 1213.387, 690.480 1212.638 C 691.504 1211.889, 693.103 1211.476, 694.033 1211.719 C 695.110 1212.001, 695.914 1211.437, 696.246 1210.168 C 696.610 1208.777, 698.535 1207.621, 702.628 1206.338 C 705.851 1205.327, 709.166 1203.905, 709.994 1203.177 C 715.047 1198.738, 717.745 1197.002, 719.597 1197.001 C 720.750 1197.001, 722.732 1196.100, 724 1195 C 725.488 1193.709, 727.759 1192.995, 730.403 1192.985 C 733.569 1192.973, 734.159 1192.728, 733 1191.909 C 731.871 1191.110, 731.809 1190.722, 732.750 1190.341 C 733.438 1190.062, 734 1188.971, 734 1187.917 C 734 1186.264, 734.745 1186, 739.418 1186 C 746.397 1186, 748 1185.326, 748 1182.393 C 748 1180.667, 748.557 1180, 750 1180 C 751.333 1180, 752 1179.333, 752 1178 C 752 1176.900, 751.550 1176, 751 1176 C 750.450 1176, 750 1175.346, 750 1174.547 C 750 1173.132, 744.433 1171.017, 740.679 1171.006 C 738.379 1170.999, 735.497 1168.334, 737.181 1167.773 C 737.821 1167.560, 736.804 1166.803, 734.922 1166.092 C 733.040 1165.380, 730.600 1164.414, 729.500 1163.944 C 722.817 1161.090, 719.690 1160.073, 718.966 1160.521 C 717.927 1161.163, 716.663 1157.354, 717.477 1156.037 C 719.636 1152.543, 721.114 1136.012, 721.593 1110 C 722.109 1081.985, 722.395 1077.050, 725.422 1044 C 726.253 1034.925, 728.315 1011.525, 730.005 992 C 734.347 941.837, 739.707 894.300, 742.170 884.116 C 742.351 883.365, 742.050 882.636, 741.500 882.496 C 740.950 882.356, 730.375 883.052, 718 884.043 M 662.635 1140.073 C 656.225 1145.115, 662.022 1154.986, 669.250 1151.337 C 673.019 1149.434, 673.204 1143.870, 669.554 1142.207 C 667.545 1141.291, 666.696 1141.430, 664.804 1142.985 L 662.500 1144.878 664.750 1147.161 C 665.987 1148.417, 667 1148.894, 667 1148.222 C 667 1147.550, 666.550 1147, 666 1147 C 665.450 1147, 665 1146.100, 665 1145 C 665 1142.524, 669.470 1142.178, 670.393 1144.582 C 671.935 1148.601, 668.986 1151.765, 664.905 1150.470 C 660.070 1148.935, 660.705 1141.304, 665.836 1139.269 C 667.414 1138.643, 667.842 1138.169, 666.885 1138.106 C 665.997 1138.048, 664.084 1138.933, 662.635 1140.073 M 685.863 1140.991 C 684.563 1142.636, 682.938 1143.986, 682.250 1143.991 C 681.499 1143.996, 681 1145.346, 681 1147.373 C 681 1150.020, 681.788 1151.419, 684.664 1153.875 C 689.291 1157.827, 690.317 1157.104, 686.142 1152.834 C 683.133 1149.756, 681.858 1145, 684.042 1145 C 685.440 1145, 688.529 1141.921, 689.309 1139.750 C 690.285 1137.032, 688.474 1137.684, 685.863 1140.991 M 673 1152.792 C 673 1154.157, 681.923 1162.410, 682.632 1161.701 C 683.003 1161.330, 681.125 1158.996, 678.460 1156.513 C 673.363 1151.767, 673 1151.520, 673 1152.792 M 942.147 1153.972 C 939.202 1154.431, 936.300 1155.300, 935.697 1155.903 C 935.093 1156.507, 933.790 1157, 932.800 1157 C 931.810 1157, 930.100 1157.900, 929 1159 C 927.900 1160.100, 926.641 1161, 926.203 1161 C 924.654 1161, 918.182 1168.559, 915.929 1173 C 914.629 1175.562, 913.590 1179.520, 913.516 1182.190 C 913.403 1186.260, 913.681 1186.954, 915.614 1187.439 C 919.230 1188.347, 920.381 1187.318, 923.684 1180.230 C 928.007 1170.951, 930.377 1168.258, 936.814 1165.313 C 941.734 1163.063, 943.346 1162.823, 950.934 1163.207 C 957.041 1163.517, 960.648 1164.244, 963.500 1165.738 C 968.229 1168.217, 975.647 1175.661, 976.217 1178.500 C 976.438 1179.600, 977.164 1180.384, 977.830 1180.243 C 978.665 1180.066, 978.834 1180.812, 978.375 1182.642 C 977.906 1184.512, 978.047 1185.089, 978.854 1184.590 C 979.484 1184.201, 980 1183.234, 980 1182.441 C 980 1181.648, 980.900 1181, 982 1181 C 983.454 1181, 984 1180.333, 984 1178.559 C 984 1175.806, 982.471 1174.334, 981.595 1176.244 C 981.278 1176.935, 981.261 1176.516, 981.557 1175.313 C 982.229 1172.581, 980.711 1169.879, 975.074 1163.773 C 967.253 1155.301, 955.695 1151.861, 942.147 1153.972 M 664.575 1161.059 C 662.472 1163.179, 661 1163.566, 661 1162 C 661 1161.450, 660.550 1161, 660 1161 C 658.112 1161, 659.008 1162.599, 663.810 1167.795 C 666.456 1170.658, 669.402 1173, 670.356 1173 C 671.310 1173, 673.195 1171.896, 674.545 1170.546 C 676.685 1168.406, 676.850 1167.766, 675.839 1165.546 C 674.344 1162.266, 672.772 1162.242, 673.593 1165.513 C 674.894 1170.697, 670.518 1172.005, 666.783 1167.549 C 664.566 1164.903, 664.590 1164.332, 667 1162.268 C 668.100 1161.326, 669 1160.206, 669 1159.778 C 669 1158.369, 666.535 1159.083, 664.575 1161.059 M 656.050 1169.906 C 654.365 1173.055, 654.819 1175.481, 657.577 1178.073 C 659.441 1179.823, 660.044 1181.250, 659.754 1183.223 C 659.435 1185.396, 659.623 1185.728, 660.677 1184.853 C 662.615 1183.245, 662.294 1180.576, 659.901 1178.411 C 658.250 1176.917, 657.910 1175.709, 658.306 1172.756 C 658.875 1168.516, 657.633 1166.948, 656.050 1169.906 M 944 1171.305 C 942.075 1171.911, 939.915 1172.980, 939.201 1173.681 C 938.486 1174.382, 937.361 1175.303, 936.701 1175.728 C 934.247 1177.306, 932.002 1183.232, 932.116 1187.831 C 932.180 1190.399, 932.438 1191.713, 932.689 1190.750 C 933.098 1189.185, 933.623 1188.876, 935.571 1189.052 C 935.885 1189.080, 937.476 1187.263, 939.105 1185.014 C 942.457 1180.387, 945.282 1178.997, 951.315 1179.007 C 955.637 1179.013, 959.476 1180.937, 962.789 1184.756 C 964.073 1186.237, 965.651 1186.872, 967.672 1186.722 C 970.548 1186.508, 970.621 1186.382, 969.676 1183.298 C 967.766 1177.068, 957.771 1169.922, 951.220 1170.102 C 949.174 1170.158, 945.925 1170.700, 944 1171.305 M 641.822 1185.750 C 639.984 1190.226, 640.050 1190.800, 642.331 1190.203 C 643.495 1189.899, 643.921 1189.474, 643.276 1189.259 C 641.516 1188.672, 643.912 1184, 645.973 1184 C 646.882 1184, 648.915 1185.345, 650.490 1186.990 C 652.065 1188.634, 653.520 1189.814, 653.722 1189.611 C 653.924 1189.409, 652.685 1187.839, 650.968 1186.122 C 646.972 1182.126, 643.369 1181.980, 641.822 1185.750 M 951.200 1190.200 C 950.540 1190.860, 950 1192.060, 950 1192.867 C 950 1194.257, 951.483 1193.572, 951.515 1192.167 C 951.524 1191.800, 951.888 1190.938, 952.324 1190.250 C 953.331 1188.665, 952.760 1188.640, 951.200 1190.200 M -0 1477.002 L -0 1522.001 800.250 1521.751 L 1600.500 1521.500 1600.760 1476.500 L 1601.020 1431.500 800.510 1431.751 L 0 1432.002 -0 1477.002 M 0.461 1477 C 0.461 1502.025, 0.590 1512.263, 0.749 1499.750 C 0.908 1487.237, 0.908 1466.763, 0.749 1454.250 C 0.590 1441.737, 0.461 1451.975, 0.461 1477 M 155.073 1461.635 C 150.733 1467.151, 153.727 1474, 160.477 1474 C 163.123 1474, 164.363 1473.375, 165.667 1471.385 C 167.202 1469.042, 167.227 1468.495, 165.909 1466.135 C 163.783 1462.330, 159.408 1462.011, 157.798 1465.544 C 156.740 1467.866, 156.833 1468.405, 158.499 1469.623 C 160.857 1471.348, 162.383 1470.937, 162.865 1468.449 C 163.184 1466.807, 163.019 1466.739, 161.591 1467.924 C 159.685 1469.506, 158.490 1468.771, 159.345 1466.543 C 160.236 1464.221, 163.756 1464.656, 164.560 1467.188 C 165.414 1469.878, 161.988 1473.071, 159.067 1472.307 C 156.914 1471.744, 154.763 1466.781, 155.660 1464.444 C 157.097 1460.699, 162.952 1459.952, 166.110 1463.110 C 167.841 1464.841, 168.108 1465.964, 167.596 1469.360 C 167.156 1472.279, 167.266 1473.058, 167.970 1472 C 169.718 1469.375, 169.171 1463.171, 167 1461 C 163.942 1457.942, 157.717 1458.273, 155.073 1461.635 M 1517 1476 C 1517 1483.182, 1517.292 1485, 1518.445 1485 C 1519.460 1485, 1519.981 1483.585, 1520.195 1480.250 C 1520.455 1476.197, 1520.830 1475.453, 1522.750 1475.180 C 1524.829 1474.885, 1525 1475.245, 1525 1479.930 C 1525 1483.770, 1525.364 1485, 1526.500 1485 C 1527.647 1485, 1528 1483.736, 1528 1479.622 C 1528 1473.476, 1526.544 1471.574, 1522.596 1472.565 C 1520.218 1473.162, 1520 1472.955, 1520 1470.108 C 1520 1468.012, 1519.512 1467, 1518.500 1467 C 1517.278 1467, 1517 1468.667, 1517 1476 M 1309 1476.500 C 1309 1483.389, 1309.284 1485, 1310.500 1485 C 1311.716 1485, 1312 1483.389, 1312 1476.500 C 1312 1469.611, 1311.716 1468, 1310.500 1468 C 1309.284 1468, 1309 1469.611, 1309 1476.500 M 1316 1476.500 L 1316 1485 1320.845 1485 C 1327.132 1485, 1329.500 1482.621, 1329.500 1476.307 C 1329.500 1470.542, 1326.712 1468, 1320.389 1468 L 1316 1468 1316 1476.500 M 1340.200 1469.200 C 1338.680 1470.720, 1338.643 1473, 1340.140 1473 C 1340.767 1473, 1341.827 1472.252, 1342.495 1471.338 C 1344.018 1469.255, 1347 1470.242, 1347 1472.828 C 1347 1473.868, 1345.200 1476.763, 1343 1479.263 C 1340.800 1481.762, 1339 1484.075, 1339 1484.403 C 1339 1484.732, 1341.700 1485, 1345 1485 C 1348.333 1485, 1351 1484.556, 1351 1484 C 1351 1483.450, 1349.148 1483, 1346.884 1483 L 1342.767 1483 1346.384 1478.997 C 1351.818 1472.982, 1350.965 1468, 1344.500 1468 C 1342.795 1468, 1340.860 1468.540, 1340.200 1469.200 M 1354.541 1470.245 C 1352.578 1473.048, 1354.326 1473.920, 1357.021 1471.481 C 1359.158 1469.547, 1362 1470.123, 1362 1472.491 C 1362 1473.346, 1360.200 1475.997, 1358 1478.384 C 1355.800 1480.771, 1354 1483.236, 1354 1483.862 C 1354 1484.586, 1356.181 1485, 1360 1485 C 1363.333 1485, 1366 1484.556, 1366 1484 C 1366 1483.450, 1364.165 1483, 1361.922 1483 L 1357.844 1483 1361.422 1478.820 C 1366.801 1472.535, 1365.936 1468, 1359.357 1468 C 1357.129 1468, 1355.621 1468.703, 1354.541 1470.245 M 1369.625 1471.125 C 1368.522 1476.642, 1368.746 1477.153, 1372.122 1476.814 C 1375.580 1476.466, 1377.743 1478.620, 1376.691 1481.364 C 1376.017 1483.120, 1372 1483.664, 1372 1482 C 1372 1481.450, 1371.292 1481, 1370.427 1481 C 1367.833 1481, 1369.248 1484.250, 1372.282 1485.261 C 1374.368 1485.956, 1375.682 1485.783, 1377.532 1484.571 C 1382.273 1481.465, 1379.684 1473.254, 1374.289 1474.285 C 1372.310 1474.663, 1371.947 1474.375, 1372.197 1472.621 C 1372.434 1470.959, 1373.312 1470.433, 1376.250 1470.190 C 1381.729 1469.736, 1380.837 1468, 1375.125 1468 C 1370.465 1468, 1370.222 1468.138, 1369.625 1471.125 M 1383.980 1469.524 C 1382.180 1471.692, 1383.571 1472.567, 1386.406 1471.050 C 1389.217 1469.546, 1391 1470.325, 1391 1473.059 C 1391 1474.333, 1390.313 1475, 1389 1475 C 1387.889 1475, 1387 1475.667, 1387 1476.500 C 1387 1477.325, 1387.852 1478, 1388.893 1478 C 1390.911 1478, 1391.986 1479.696, 1391.269 1481.750 C 1390.754 1483.228, 1386 1483.454, 1386 1482 C 1386 1481.450, 1385.325 1481, 1384.500 1481 C 1381.945 1481, 1382.849 1483.695, 1385.816 1484.924 C 1391.512 1487.283, 1397.253 1482.148, 1393.525 1478.028 C 1392.436 1476.824, 1392.234 1475.973, 1392.935 1475.540 C 1394.371 1474.653, 1394.287 1470.687, 1392.800 1469.200 C 1391.103 1467.503, 1385.486 1467.709, 1383.980 1469.524 M 1397 1469 C 1397 1469.550, 1399.025 1470, 1401.500 1470 C 1403.975 1470, 1406 1470.235, 1406 1470.522 C 1406 1470.809, 1404.650 1474.021, 1403 1477.660 C 1399.523 1485.328, 1399.596 1485, 1401.366 1485 C 1402.457 1485, 1406.660 1477.081, 1409.725 1469.250 C 1410.086 1468.327, 1408.487 1468, 1403.607 1468 C 1399.869 1468, 1397 1468.434, 1397 1469 M 1415.577 1473.719 C 1411.228 1480.671, 1411.074 1482.212, 1414.750 1481.969 C 1419.186 1481.677, 1420 1481.914, 1420 1483.500 C 1420 1484.325, 1420.563 1484.996, 1421.250 1484.992 C 1422.878 1484.982, 1425.422 1479.641, 1424.021 1479.174 C 1423.459 1478.986, 1423 1476.396, 1423 1473.417 C 1423 1468.739, 1422.738 1468, 1421.077 1468 C 1419.821 1468, 1417.914 1469.983, 1415.577 1473.719 M 1427.980 1469.524 C 1426.180 1471.692, 1427.571 1472.567, 1430.406 1471.050 C 1433.217 1469.546, 1435 1470.325, 1435 1473.059 C 1435 1474.333, 1434.313 1475, 1433 1475 C 1431.889 1475, 1431 1475.667, 1431 1476.500 C 1431 1477.325, 1431.852 1478, 1432.893 1478 C 1434.860 1478, 1436.423 1480.506, 1435.444 1482.090 C 1434.689 1483.312, 1431.272 1483.250, 1430.500 1482 C 1429.705 1480.714, 1427 1480.696, 1427 1481.977 C 1427 1482.514, 1428.077 1483.660, 1429.394 1484.523 C 1434.511 1487.875, 1441.491 1482.410, 1437.594 1478.103 C 1436.465 1476.857, 1436.238 1475.971, 1436.935 1475.540 C 1438.371 1474.653, 1438.287 1470.687, 1436.800 1469.200 C 1435.103 1467.503, 1429.486 1467.709, 1427.980 1469.524 M 1441 1469 C 1441 1469.550, 1443.055 1470, 1445.567 1470 C 1449.844 1470, 1450.090 1470.143, 1449.438 1472.250 C 1449.055 1473.487, 1447.674 1476.623, 1446.370 1479.217 C 1443.571 1484.786, 1443.505 1485.249, 1445.569 1484.823 C 1446.789 1484.572, 1454 1470.576, 1454 1468.459 C 1454 1468.207, 1451.075 1468, 1447.500 1468 C 1443.833 1468, 1441 1468.436, 1441 1469 M 1465.455 1470.455 C 1460.161 1475.748, 1463.950 1485.400, 1471.321 1485.400 C 1478.006 1485.400, 1481.850 1478.478, 1478.625 1472.243 C 1476.027 1467.218, 1469.568 1466.341, 1465.455 1470.455 M 1490.571 1469.571 C 1489.707 1470.436, 1489 1471.561, 1489 1472.071 C 1489 1473.596, 1492.016 1473.122, 1492.638 1471.500 C 1493.333 1469.690, 1496.951 1469.488, 1497.118 1471.250 C 1497.398 1474.196, 1496.623 1475.726, 1492.921 1479.538 C 1490.765 1481.759, 1489 1483.896, 1489 1484.288 C 1489 1484.680, 1491.700 1485, 1495 1485 C 1498.333 1485, 1501 1484.556, 1501 1484 C 1501 1483.450, 1499.387 1483, 1497.416 1483 L 1493.832 1483 1496.782 1479.250 C 1500.732 1474.230, 1501.462 1471.605, 1499.463 1469.605 C 1497.412 1467.555, 1492.606 1467.537, 1490.571 1469.571 M 1466.039 1471.189 C 1461.945 1475.583, 1464.318 1483.162, 1470.225 1484.559 C 1472.409 1485.076, 1473.550 1484.604, 1475.975 1482.179 C 1479.529 1478.625, 1479.827 1475.322, 1476.927 1471.635 C 1474.250 1468.231, 1468.995 1468.016, 1466.039 1471.189 M 32.540 1472.179 C 32.246 1473.456, 31.892 1477.828, 31.753 1481.895 C 31.555 1487.668, 31.116 1489.532, 29.750 1490.390 C 27.018 1492.107, 24.500 1489.955, 24.500 1485.904 C 24.500 1483.219, 25.055 1482.261, 27.206 1481.230 C 28.960 1480.389, 29.710 1479.407, 29.337 1478.437 C 27.954 1474.832, 20 1480.952, 20 1485.622 C 20 1495.858, 33.076 1498.512, 35.521 1488.772 C 36.535 1484.733, 35.599 1470.693, 34.287 1470.259 C 33.620 1470.039, 32.834 1470.902, 32.540 1472.179 M 1320 1476.500 C 1320 1482.192, 1320.233 1483, 1321.878 1483 C 1324.620 1483, 1326.200 1480.564, 1326.200 1476.337 C 1326.200 1473.918, 1325.574 1472.162, 1324.409 1471.310 C 1320.818 1468.684, 1320 1469.646, 1320 1476.500 M 1468.571 1472.571 C 1466.712 1474.431, 1466.501 1479.101, 1468.200 1480.800 C 1469.844 1482.444, 1472.501 1482.306, 1474 1480.500 C 1474.785 1479.554, 1474.852 1479, 1474.181 1479 C 1473.597 1479, 1472.840 1479.450, 1472.500 1480 C 1471.525 1481.577, 1470.165 1481.176, 1468.980 1478.962 C 1466.739 1474.775, 1470.580 1470.980, 1473.800 1474.200 C 1474.693 1475.093, 1475 1475.102, 1475 1474.235 C 1475 1473.216, 1472.011 1471, 1470.637 1471 C 1470.365 1471, 1469.436 1471.707, 1468.571 1472.571 M 1505.750 1473.080 C 1502.776 1474.812, 1503.621 1477.944, 1507.500 1479.564 C 1509.425 1480.369, 1511 1481.444, 1511 1481.954 C 1511 1483.537, 1508.883 1484.283, 1507.713 1483.113 C 1506.318 1481.718, 1504 1481.661, 1504 1483.021 C 1504 1485.025, 1508.806 1486.409, 1511.500 1485.182 C 1515.456 1483.379, 1514.227 1478, 1509.859 1478 C 1507.673 1478, 1506.452 1476.148, 1507.769 1474.831 C 1508.429 1474.171, 1509.462 1474.272, 1510.837 1475.130 C 1513.536 1476.816, 1515.090 1475.270, 1512.557 1473.418 C 1510.292 1471.762, 1508.192 1471.658, 1505.750 1473.080 M 1534.280 1473.020 C 1529.622 1474.894, 1530.095 1482.968, 1534.981 1484.992 C 1537.520 1486.044, 1538.378 1485.982, 1540.494 1484.596 C 1543.906 1482.360, 1544.073 1475.865, 1540.777 1473.557 C 1538.284 1471.810, 1537.457 1471.742, 1534.280 1473.020 M 1548.170 1473.594 C 1546.315 1474.893, 1545.950 1475.955, 1546.197 1479.336 C 1546.448 1482.774, 1546.991 1483.719, 1549.363 1484.851 C 1551.591 1485.914, 1552.786 1485.963, 1554.743 1485.071 C 1557.813 1483.672, 1557.020 1482.639, 1552.814 1482.559 C 1547.900 1482.466, 1547.999 1480, 1552.917 1480 C 1556.580 1480, 1557 1479.749, 1557 1477.557 C 1557 1475.226, 1553.806 1472, 1551.500 1472 C 1550.920 1472, 1549.421 1472.717, 1548.170 1473.594 M 1561.750 1473.080 C 1558.512 1474.966, 1560.252 1480, 1564.141 1480 C 1566.334 1480, 1567.546 1481.854, 1566.220 1483.180 C 1565.546 1483.854, 1564.502 1483.804, 1563.052 1483.028 C 1559.723 1481.246, 1558.190 1482.423, 1561.238 1484.421 C 1566.065 1487.583, 1572.352 1483.538, 1568.960 1479.452 C 1568.297 1478.653, 1566.937 1478, 1565.937 1478 C 1563.685 1478, 1562.432 1476.168, 1563.769 1474.831 C 1564.429 1474.171, 1565.462 1474.272, 1566.837 1475.130 C 1569.536 1476.816, 1571.090 1475.270, 1568.557 1473.418 C 1566.292 1471.762, 1564.192 1471.658, 1561.750 1473.080 M 140.667 1473.667 C 140.300 1474.033, 140 1477.798, 140 1482.032 C 140 1488.306, 140.383 1490.218, 142.073 1492.365 C 145.718 1496.999, 153 1494.719, 153 1488.943 C 153 1485.249, 150.475 1484.970, 149.573 1488.565 C 149.087 1490.500, 148.386 1491.053, 146.715 1490.815 C 144.836 1490.548, 144.454 1489.779, 144.195 1485.750 L 143.890 1481 148.519 1481 C 152.386 1481, 153.092 1480.712, 152.815 1479.250 C 152.574 1477.982, 151.342 1477.417, 148.344 1477.198 C 145.234 1476.970, 144.079 1476.411, 143.697 1474.948 C 143.183 1472.983, 141.895 1472.438, 140.667 1473.667 M 1416.610 1476.083 L 1414.788 1479.167 1417.097 1478.833 C 1418.823 1478.584, 1419.441 1477.806, 1419.548 1475.750 C 1419.734 1472.173, 1418.861 1472.272, 1416.610 1476.083 M 1534.519 1476.942 C 1533.465 1480.260, 1534.858 1483.161, 1537.336 1482.808 C 1539.084 1482.559, 1539.500 1481.827, 1539.500 1479 C 1539.500 1476.173, 1539.084 1475.441, 1537.336 1475.192 C 1535.866 1474.982, 1534.962 1475.543, 1534.519 1476.942 M 1549.667 1475.667 C 1548.307 1477.026, 1549.072 1478, 1551.500 1478 C 1553.056 1478, 1554 1477.433, 1554 1476.500 C 1554 1475, 1550.925 1474.409, 1549.667 1475.667 M 45.315 1478.061 C 42.067 1479.289, 40.867 1482.393, 41.201 1488.697 C 41.611 1496.440, 44 1497.257, 44 1489.655 C 44 1484.379, 45.590 1481, 48.071 1481 C 49.179 1481, 49.323 1478.308, 48.250 1477.676 C 47.837 1477.434, 46.517 1477.607, 45.315 1478.061 M 57.837 1478.787 C 56.552 1479.665, 55.169 1480.860, 54.765 1481.442 C 53.275 1483.588, 54.012 1489.746, 56.073 1492.365 C 57.842 1494.615, 58.914 1495, 63.406 1495 C 66.299 1495, 68.963 1494.704, 69.325 1494.342 C 70.809 1492.858, 67.491 1491, 63.356 1491 C 59.599 1491, 58.786 1490.624, 57.783 1488.422 C 56.516 1485.643, 57.308 1483.470, 60.269 1481.602 C 62.634 1480.110, 63.611 1481.668, 61.661 1483.823 C 59.629 1486.068, 59.513 1488, 61.411 1488 C 63.450 1488, 68.018 1482.211, 67.351 1480.473 C 67.040 1479.663, 66.719 1479, 66.636 1479 C 66.554 1479, 65.066 1478.593, 63.331 1478.095 C 60.941 1477.409, 59.607 1477.577, 57.837 1478.787 M 78.302 1478.021 C 75.265 1479.231, 72.725 1484.470, 73.488 1487.947 C 74.264 1491.477, 78.242 1495.293, 80.661 1494.827 C 83.282 1494.322, 82.934 1492.149, 80 1490.694 C 76.829 1489.121, 76.011 1484.197, 78.605 1482.299 C 80.980 1480.563, 81.650 1480.650, 84 1483 C 85.467 1484.467, 86 1486.333, 86 1490 C 86 1493.778, 86.367 1495, 87.500 1495 C 88.665 1495, 89 1493.673, 89 1489.056 C 89 1484.291, 88.553 1482.620, 86.750 1480.637 C 84.067 1477.686, 81.297 1476.828, 78.302 1478.021 M 97.657 1479.055 C 95.238 1480.958, 95 1481.765, 95 1488.073 C 95 1493.564, 95.311 1495, 96.500 1495 C 97.661 1495, 98 1493.689, 98 1489.200 C 98 1481.769, 100.083 1479.226, 103.429 1482.571 C 104.477 1483.620, 105 1485.977, 105 1489.655 C 105 1493.618, 105.351 1495.051, 106.250 1494.754 C 107.026 1494.498, 107.613 1491.980, 107.799 1488.120 C 108.019 1483.541, 108.519 1481.738, 109.694 1481.287 C 112.201 1480.325, 114 1483.836, 114 1489.691 C 114 1493.743, 114.355 1495, 115.500 1495 C 116.674 1495, 117 1493.636, 117 1488.723 C 117 1480.063, 115.346 1477.832, 109.162 1478.149 C 106.598 1478.281, 103.558 1478.069, 102.407 1477.677 C 100.981 1477.192, 99.468 1477.631, 97.657 1479.055 M 129.974 1478.820 C 128.306 1480.171, 127.459 1482.132, 127.061 1485.570 C 126.583 1489.702, 126.132 1490.502, 124 1491.003 C 120.847 1491.744, 120.731 1494.391, 123.832 1494.830 C 127.338 1495.327, 130 1492.343, 130 1487.916 C 130 1484.008, 132.020 1481, 134.645 1481 C 136.634 1481, 135.968 1477.618, 133.901 1477.219 C 133.034 1477.053, 131.267 1477.773, 129.974 1478.820 M 201.352 1478.066 C 198.587 1479.088, 196 1482.814, 196 1485.772 C 196 1488.842, 198.512 1493.599, 200.545 1494.379 C 203.704 1495.591, 208 1495.067, 208 1493.469 C 208 1491.894, 207.465 1491.598, 202.750 1490.564 C 200.399 1490.049, 200 1489.462, 200 1486.516 C 200 1484.133, 200.596 1482.751, 201.934 1482.035 C 205.320 1480.223, 206.212 1480.915, 204.044 1483.671 C 202.584 1485.527, 202.261 1486.661, 202.987 1487.387 C 204.391 1488.791, 210.498 1482.741, 209.721 1480.715 C 208.945 1478.693, 203.939 1477.108, 201.352 1478.066 M 224.455 1479.455 C 221.391 1482.519, 221.040 1489.593, 223.784 1492.982 C 226.349 1496.149, 232.602 1496.209, 235.127 1493.091 C 236.157 1491.819, 237 1490.378, 237 1489.889 C 237 1488.394, 233.769 1488.899, 231.770 1490.708 C 230.342 1492, 229.471 1492.158, 228.191 1491.357 C 226.134 1490.069, 225.413 1484.412, 227.054 1482.435 C 228.613 1480.557, 231.908 1480.595, 232.638 1482.500 C 233.371 1484.410, 237 1484.471, 237 1482.573 C 237 1480.519, 232.150 1477, 229.320 1477 C 227.994 1477, 225.805 1478.105, 224.455 1479.455 M 243.282 1478.206 C 239.160 1480.196, 237.981 1488.862, 241.289 1492.849 C 243.227 1495.184, 246.726 1495.992, 249.984 1494.856 C 253.752 1493.542, 255 1491.345, 255 1486.020 C 255 1479.002, 249.387 1475.259, 243.282 1478.206 M 258.496 1477.837 C 257.811 1478.522, 257.869 1492.496, 258.565 1494.308 C 258.896 1495.170, 259.912 1495.574, 261.021 1495.284 C 262.598 1494.872, 262.962 1493.680, 263.207 1488.145 C 263.466 1482.264, 263.730 1481.500, 265.500 1481.500 C 267.275 1481.500, 267.533 1482.266, 267.797 1488.313 C 268.075 1494.691, 268.235 1495.107, 270.297 1494.813 C 272.247 1494.536, 272.557 1493.755, 273 1488 C 273.436 1482.333, 273.756 1481.500, 275.500 1481.500 C 277.275 1481.500, 277.533 1482.266, 277.797 1488.313 C 278.075 1494.691, 278.235 1495.107, 280.297 1494.813 C 282.211 1494.541, 282.540 1493.791, 282.808 1489.096 C 283.339 1479.768, 279.515 1475.077, 273.584 1477.780 C 272.296 1478.367, 270.725 1478.448, 269.948 1477.968 C 268.517 1477.083, 259.355 1476.979, 258.496 1477.837 M 159 1485.868 C 159 1490.465, 159.455 1494.163, 160.067 1494.541 C 161.709 1495.557, 161.839 1495.041, 162.089 1486.489 C 162.287 1479.723, 162.069 1478.451, 160.662 1478.177 C 159.224 1477.897, 159 1478.934, 159 1485.868 M 169.424 1480.476 C 167.563 1483.315, 167.810 1494.114, 169.750 1494.754 C 170.649 1495.051, 171 1493.618, 171 1489.655 C 171 1485.977, 171.523 1483.620, 172.571 1482.571 C 175.917 1479.226, 178 1481.769, 178 1489.200 C 178 1493.689, 178.339 1495, 179.500 1495 C 180.663 1495, 181 1493.680, 181 1489.122 C 181 1485.118, 181.478 1482.848, 182.500 1482 C 185.234 1479.731, 187 1482.526, 187 1489.122 C 187 1493.680, 187.337 1495, 188.500 1495 C 189.687 1495, 190 1493.573, 190 1488.155 C 190 1479.135, 189.014 1478.263, 178.726 1478.195 C 171.656 1478.148, 170.814 1478.354, 169.424 1480.476 M 244.398 1482.405 C 243.383 1485.049, 244.498 1490.297, 246.309 1491.399 C 247.753 1492.278, 248.408 1492.109, 249.559 1490.559 C 251.311 1488.199, 251.437 1483.837, 249.800 1482.200 C 248.167 1480.567, 245.058 1480.685, 244.398 1482.405 M 213.408 1491.378 C 212.599 1493.487, 213.735 1495, 216.129 1495 C 217.639 1495, 218.060 1494.443, 217.820 1492.760 C 217.447 1490.146, 214.264 1489.149, 213.408 1491.378" stroke="none" fill="black" fill-rule="evenodd"/>
</svg>